<svg width="149" height="41" viewBox="0 0 149 41" fill="none" xmlns="http://www.w3.org/2000/svg">
<path d="M28.0453 8.16203C28.0453 9.39403 27.5686 10.516 26.6153 11.528C25.662 12.5254 24.342 13.3174 22.6553 13.904C20.9686 14.476 19.084 14.762 17.0013 14.762H16.4073V16.28H13.5473V14.762H13.1513H13.0193H12.9973C10.988 14.762 9.1033 14.4687 7.3433 13.882C5.59796 13.2954 4.1973 12.5034 3.1413 11.506C2.09996 10.494 1.5793 9.37936 1.5793 8.16203C1.5793 6.93003 2.09996 5.81536 3.1413 4.81803C4.18263 3.8207 5.56863 3.0287 7.2993 2.44203C9.04463 1.85536 10.922 1.5547 12.9313 1.54003H13.5473V2.90871e-05H16.4073V1.54003H17.0013C19.0986 1.5547 20.9833 1.84803 22.6553 2.42003C24.342 2.99203 25.662 3.78403 26.6153 4.79603C27.5686 5.79336 28.0453 6.91536 28.0453 8.16203ZM13.5473 12.012V4.29003H13.2613C11.1053 4.29003 9.15463 4.58336 7.4093 5.17003C5.67863 5.7567 4.8133 6.75403 4.8133 8.16203C4.8133 9.11536 5.2533 9.88536 6.1333 10.472C7.02796 11.044 8.1133 11.4474 9.3893 11.682C10.68 11.902 11.9706 12.012 13.2613 12.012H13.5473ZM16.9353 12.012C19.15 12.012 21.042 11.726 22.6113 11.154C24.1806 10.5674 24.9653 9.57003 24.9653 8.16203C24.9653 6.73936 24.1586 5.74203 22.5453 5.17003C20.932 4.58336 19.0546 4.29003 16.9133 4.29003H16.4073V12.012H16.9353ZM48.0497 16.28H44.9697L42.9237 12.496H32.1217L30.0757 16.28H26.9957L35.8177 2.90871e-05H39.2277L48.0497 16.28ZM37.5337 2.53003L33.5737 9.81203H41.4717L37.5337 2.53003ZM57.2612 5.72003C59.9012 5.72003 61.8958 5.92536 63.2452 6.33603C64.5945 6.7467 65.4818 7.30403 65.9072 8.00803C66.3472 8.71203 66.5672 9.62136 66.5672 10.736V10.802C66.5672 11.7114 66.3985 12.5547 66.0612 13.332C65.7238 14.1094 64.9172 14.806 63.6412 15.422C62.3798 16.038 60.4805 16.346 57.9432 16.346H49.4292V0.0660282H65.5112V2.59603H52.2892V5.72003H57.2612ZM58.7132 13.904C60.4732 13.904 61.7418 13.6474 62.5192 13.134C63.3112 12.606 63.7072 11.8214 63.7072 10.78C63.7072 10.0907 63.5385 9.55536 63.2012 9.17403C62.8785 8.7927 62.3578 8.5287 61.6392 8.38203C60.9352 8.2207 59.9598 8.14003 58.7132 8.14003H58.6912H52.2892V13.86C55.5305 13.86 57.5032 13.8747 58.2072 13.904H58.7132ZM79.7411 2.90871e-05C81.1051 2.90871e-05 82.3077 0.227362 83.3491 0.682028C84.4051 1.1367 85.2191 1.7747 85.7911 2.59603C86.3777 3.4027 86.6711 4.34136 86.6711 5.41203V5.50003C86.6711 7.30403 86.1651 8.67536 85.1531 9.61403C84.1411 10.538 82.6084 11 80.5551 11H71.4911V16.28H68.6091V2.90871e-05H79.7411ZM79.5871 8.55803C80.4671 8.55803 81.1857 8.5067 81.7431 8.40403C82.3151 8.30136 82.7991 8.03736 83.1951 7.61203C83.6057 7.17203 83.8111 6.49003 83.8111 5.56603C83.8111 4.59803 83.6057 3.8867 83.1951 3.43203C82.7991 2.96269 82.3224 2.67669 81.7651 2.57403C81.2077 2.47136 80.4817 2.42003 79.5871 2.42003H78.6411C78.2157 2.42003 77.4824 2.42736 76.4411 2.44203C75.4144 2.44203 73.7571 2.44203 71.4691 2.44203L71.4911 8.55803H79.5651H79.5871ZM91.7876 2.90871e-05V12.914L104.768 2.90871e-05H107.628V16.28H104.768V3.36603L91.7876 16.28H88.9276V2.90871e-05H91.7876ZM115.666 7.45803L126.534 16.28H122.156L113.18 8.73403V16.28H110.32V2.90871e-05H113.18V6.29203L121.738 2.90871e-05H126.182L115.666 7.45803ZM147.859 16.28H144.779L142.733 12.496H131.931L129.885 16.28H126.805L135.627 2.90871e-05H139.037L147.859 16.28ZM137.343 2.53003L133.383 9.81203H141.281L137.343 2.53003ZM26.4662 30.162C26.4662 31.394 25.9895 32.516 25.0362 33.528C24.0829 34.5254 22.7629 35.3174 21.0762 35.904C19.3895 36.476 17.5049 36.762 15.4222 36.762H14.8282V38.28H11.9682V36.762H11.5722H11.4402H11.4182C9.40886 36.762 7.5242 36.4687 5.7642 35.882C4.01886 35.2954 2.61819 34.5034 1.56219 33.506C0.520861 32.494 0.000194728 31.3794 0.000194728 30.162C0.000194728 28.93 0.520861 27.8154 1.56219 26.818C2.60353 25.8207 3.98953 25.0287 5.7202 24.442C7.46553 23.8554 9.34286 23.5547 11.3522 23.54H11.9682V22H14.8282V23.54H15.4222C17.5195 23.5547 19.4042 23.848 21.0762 24.42C22.7629 24.992 24.0829 25.784 25.0362 26.796C25.9895 27.7934 26.4662 28.9154 26.4662 30.162ZM11.9682 34.012V26.29H11.6822C9.5262 26.29 7.57553 26.5834 5.8302 27.17C4.09953 27.7567 3.23419 28.754 3.23419 30.162C3.23419 31.1154 3.67419 31.8854 4.5542 32.472C5.44886 33.044 6.53419 33.4474 7.8102 33.682C9.10086 33.902 10.3915 34.012 11.6822 34.012H11.9682ZM15.3562 34.012C17.5709 34.012 19.4629 33.726 21.0322 33.154C22.6015 32.5674 23.3862 31.57 23.3862 30.162C23.3862 28.7394 22.5795 27.742 20.9662 27.17C19.3529 26.5834 17.4755 26.29 15.3342 26.29H14.8282V34.012H15.3562ZM46.4706 38.28H43.3906L41.3446 34.496H30.5426L28.4966 38.28H25.4166L34.2386 22H37.6486L46.4706 38.28ZM35.9546 24.53L31.9946 31.812H39.8926L35.9546 24.53ZM46.0995 30.162C46.0995 28.534 46.5322 27.0674 47.3975 25.762C48.2775 24.4567 49.4729 23.4374 50.9835 22.704C52.4942 21.956 54.1735 21.582 56.0215 21.582C58.2362 21.582 60.1795 22.132 61.8515 23.232C63.5382 24.332 64.7555 25.894 65.5035 27.918L62.5115 27.962C62.2035 27.1407 61.6829 26.4367 60.9495 25.85C60.2162 25.2634 59.4022 24.8234 58.5075 24.53C57.6275 24.222 56.8062 24.068 56.0435 24.068C54.8995 24.068 53.7775 24.31 52.6775 24.794C51.5922 25.2634 50.6975 25.96 49.9935 26.884C49.3042 27.808 48.9595 28.9007 48.9595 30.162C48.9595 31.4527 49.2822 32.5527 49.9275 33.462C50.5729 34.3714 51.4309 35.0607 52.5015 35.53C53.5869 35.9994 54.7675 36.234 56.0435 36.234C56.7915 36.234 57.5762 36.0947 58.3975 35.816C59.2189 35.5227 59.9889 35.09 60.7075 34.518C61.4262 33.946 61.9982 33.2494 62.4235 32.428H65.5255C64.7042 34.4814 63.4649 36.0434 61.8075 37.114C60.1649 38.1847 58.2362 38.72 56.0215 38.72C54.1882 38.72 52.5089 38.346 50.9835 37.598C49.4729 36.85 48.2775 35.8234 47.3975 34.518C46.5322 33.2127 46.0995 31.7607 46.0995 30.162ZM85.7542 38.28H82.6742L80.6282 34.496H69.8262L67.7802 38.28H64.7002L73.5222 22H76.9322L85.7542 38.28ZM75.2382 24.53L71.2782 31.812H79.1762L75.2382 24.53ZM104.14 35.64H106.318V40.392H103.546V38.302L89.3117 38.28V40.392H86.5397V35.64H87.6397C88.989 33.616 89.979 31.5114 90.6097 29.326C91.255 27.1407 91.5777 24.6987 91.5777 22H104.118L104.14 35.64ZM94.2177 24.42C93.8803 28.6734 92.6777 32.4134 90.6097 35.64H101.39V24.442L94.2177 24.42ZM117.725 21.648C119.588 21.648 121.26 22.022 122.741 22.77C124.237 23.5034 125.403 24.5227 126.239 25.828C127.09 27.1187 127.515 28.578 127.515 30.206C127.515 31.8194 127.09 33.2714 126.239 34.562C125.403 35.8527 124.244 36.872 122.763 37.62C121.282 38.3534 119.61 38.72 117.747 38.72C115.943 38.72 114.286 38.3534 112.775 37.62C111.264 36.872 110.069 35.8527 109.189 34.562C108.309 33.2567 107.869 31.8047 107.869 30.206C107.869 28.5927 108.309 27.1334 109.189 25.828C110.069 24.5227 111.257 23.5034 112.753 22.77C114.264 22.022 115.921 21.648 117.725 21.648ZM117.725 36.234C118.913 36.234 120.035 35.9994 121.091 35.53C122.147 35.0607 122.998 34.3714 123.643 33.462C124.288 32.5527 124.611 31.4674 124.611 30.206C124.611 28.974 124.281 27.896 123.621 26.972C122.976 26.048 122.118 25.344 121.047 24.86C119.976 24.376 118.847 24.134 117.659 24.134C116.368 24.134 115.195 24.376 114.139 24.86C113.098 25.344 112.276 26.048 111.675 26.972C111.074 27.8814 110.773 28.9594 110.773 30.206C110.773 31.482 111.088 32.5747 111.719 33.484C112.364 34.3934 113.215 35.0827 114.271 35.552C115.327 36.0067 116.478 36.234 117.725 36.234ZM144.819 29.744C146.051 29.9934 146.983 30.426 147.613 31.042C148.244 31.6434 148.559 32.5087 148.559 33.638V33.726C148.559 35.09 148.237 36.0947 147.591 36.74C146.961 37.3854 146.11 37.8034 145.039 37.994C143.983 38.17 142.502 38.2727 140.595 38.302H140.551H139.495L129.661 38.28V22H141.607C143.309 22.0147 144.665 22.3667 145.677 23.056C146.689 23.7454 147.195 24.7207 147.195 25.982V26.07C147.195 27.0234 146.997 27.8007 146.601 28.402C146.205 29.0034 145.611 29.4507 144.819 29.744ZM144.379 26.444C144.379 25.7694 144.233 25.278 143.939 24.97C143.661 24.662 143.294 24.4714 142.839 24.398C142.385 24.3247 141.732 24.288 140.881 24.288H140.837H132.499V28.6C133.174 28.6147 133.841 28.622 134.501 28.622C135.161 28.622 135.785 28.6294 136.371 28.644C137.75 28.644 138.483 28.6514 138.571 28.666H140.881C141.776 28.666 142.429 28.6367 142.839 28.578C143.265 28.5194 143.624 28.336 143.917 28.028C144.225 27.7054 144.379 27.1774 144.379 26.444ZM132.499 28.886H132.543L132.499 28.864V28.886ZM141.585 35.926C142.597 35.926 143.353 35.8894 143.851 35.816C144.35 35.728 144.746 35.508 145.039 35.156C145.347 34.7894 145.501 34.2027 145.501 33.396C145.501 32.6187 145.347 32.0614 145.039 31.724C144.746 31.372 144.35 31.1594 143.851 31.086C143.353 30.998 142.597 30.954 141.585 30.954H141.563H132.499V35.882C136.181 35.882 138.843 35.8967 140.485 35.926H141.585Z" fill="white"/>
</svg>
